<svg width="39" height="39" viewBox="0 0 39 39" fill="none" xmlns="http://www.w3.org/2000/svg">
<path d="M29.5896 29.9254C29.5896 29.9254 19.5245 35.2166 8.65892 29.9254V16.1357H29.5896V29.9254Z" fill="#1C3533"/>
<path d="M38.065 10.7282V4.50575L20.1565 6.90714L23.0936 14.5428L38.065 10.7282Z" fill="#124541"/>
<path d="M0.187126 10.7273L5.98619 8.80784L26.2159 13.7549L19.1253 15.5524L0.187126 10.7273Z" fill="#1C3533"/>
<path d="M10.7491 2.29712L17.926 0.745605L38.0647 4.50229L30.9738 6.29986L10.7491 2.29712Z" fill="#1C3533"/>
<path d="M6.00211 5.99982L10.7486 4.77761L30.9637 9.43834L23.8734 11.2362L6.00211 5.99982Z" fill="#1C3533"/>
<path d="M38.0645 17.9356L19.1273 22.8256V15.5518L38.0645 10.7268V17.9356Z" fill="#124541"/>
<path d="M0.187126 17.9356L19.1244 22.8256V15.5518L0.187126 10.7273V17.9356Z" fill="#1C3533"/>
<path d="M38.0645 20.1687L19.1273 25.0591V17.785L38.0645 12.9599V20.1687Z" fill="#124541"/>
<path d="M0.187126 20.1687L19.1244 25.0591V17.785L0.187126 12.9599V20.1687Z" fill="#1C3533"/>
<path d="M10.7486 4.77761L30.9637 9.43834L30.9642 6.30749L10.7491 2.29712L10.7486 4.77761Z" fill="#1C3533"/>
<path d="M6.00211 8.82957L26.2176 13.7555V10.6243L6.00211 5.99982V8.82957Z" fill="#1C3533"/>
<path d="M2.21548 29.7552H4.27426V13.6854L2.21548 14.2001V29.7552Z" fill="#1C3533"/>
<path d="M6.4939 32.9551C6.4939 36.0659 3.24695 38.5874 3.24695 38.5874C3.24695 38.5874 0 36.0659 0 32.9551C0 29.8444 3.24695 27.3226 3.24695 27.3226C3.24695 27.3226 6.4939 29.844 6.4939 32.9551Z" fill="#114541"/>
</svg>
